<svg xmlns="http://www.w3.org/2000/svg" width="251" height="242" viewBox="0 0 251 242">
  <g id="Grupo_28" data-name="Grupo 28" transform="translate(30 210)">
    <g id="Elipse_1" data-name="Elipse 1" transform="translate(-30 -210)" fill="#ef6c00" stroke="#707070" stroke-width="1">
      <ellipse cx="125.5" cy="121" rx="125.5" ry="121" stroke="none"/>
      <ellipse cx="125.5" cy="121" rx="125" ry="120.5" fill="none"/>
    </g>
    <g id="Grupo_17" data-name="Grupo 17" transform="translate(16.86 -152)">
      <path id="Shape" d="M23.452,53.022c9.114,19.034,24.737,34.669,42.964,44.865L80.738,82.933c1.953-2.039,4.557-2.719,6.51-1.36a65.494,65.494,0,0,0,23.435,4.079c3.906,0,6.51,2.719,6.51,6.8v23.112c0,4.079-2.6,6.8-6.51,6.8C49.491,122.36.017,70.7.017,6.8c0-4.079,2.6-6.8,6.51-6.8H29.311c3.906,0,6.51,2.719,6.51,6.8A80.082,80.082,0,0,0,39.726,31.27a8.673,8.673,0,0,1-1.3,6.8L23.452,53.022h0Z" transform="translate(20.067 1.82)" fill="#eff2fa"/>
    </g>
  </g>
</svg>
